<?xml version="1.0" encoding="utf-8"?>
<svg viewBox="176.873 321.637 265.744 61.612" xmlns="http://www.w3.org/2000/svg">
  <rect style="stroke-width: 4px; fill: rgb(253, 233, 23); paint-order: stroke; stroke: rgb(255, 255, 255); stroke-opacity: 0;" x="176.873" y="321.637" width="265.744" height="61.612" rx="16" ry="16"/>
  <path d="M 205.065 363.579 C 203.226 363.579 201.604 363.147 200.2 362.283 C 198.798 361.421 197.699 360.226 196.905 358.697 C 196.11 357.168 195.713 355.406 195.713 353.411 L 195.713 352.355 C 195.713 350.374 196.11 348.606 196.905 347.051 C 197.699 345.498 198.775 344.273 200.132 343.378 C 201.489 342.482 203.001 342.035 204.668 342.035 C 206.429 342.035 207.934 342.399 209.186 343.129 C 210.436 343.857 211.395 344.883 212.065 346.208 C 212.733 347.532 213.068 349.089 213.068 350.88 L 213.068 352.835 L 198.177 352.835 L 198.136 353.68 C 198.149 355.216 198.444 356.584 199.021 357.785 C 199.596 358.987 200.403 359.933 201.441 360.625 C 202.481 361.316 203.689 361.662 205.065 361.662 C 206.416 361.662 207.604 361.454 208.63 361.038 C 209.656 360.623 210.559 360.056 211.339 359.339 L 212.351 360.913 C 211.518 361.68 210.509 362.317 209.325 362.822 C 208.14 363.327 206.72 363.579 205.065 363.579 Z M 198.335 350.916 L 210.685 350.916 L 210.685 350.341 C 210.685 349.127 210.443 348.037 209.959 347.072 C 209.477 346.105 208.789 345.346 207.895 344.797 C 207.001 344.247 205.926 343.972 204.668 343.972 C 203.53 343.972 202.504 344.27 201.59 344.865 C 200.678 345.459 199.934 346.271 199.359 347.3 C 198.782 348.33 198.427 349.497 198.295 350.802 L 198.335 350.916 Z M 225.431 363.177 L 217.63 344.241 L 215.347 344.107 L 215.347 342.418 L 222.911 342.418 L 222.911 344.107 L 220.091 344.28 L 225.651 357.977 L 226.446 360.259 L 226.564 360.259 L 227.417 357.977 L 232.798 344.28 L 229.94 344.107 L 229.94 342.418 L 237.505 342.418 L 237.505 344.107 L 235.181 344.241 L 227.576 363.177 L 225.431 363.177 Z M 248.875 363.579 C 247.035 363.579 245.413 363.147 244.01 362.283 C 242.608 361.421 241.509 360.226 240.715 358.697 C 239.921 357.168 239.523 355.406 239.523 353.411 L 239.523 352.355 C 239.523 350.374 239.921 348.606 240.715 347.051 C 241.509 345.498 242.585 344.273 243.942 343.378 C 245.297 342.482 246.809 342.035 248.478 342.035 C 250.239 342.035 251.744 342.399 252.994 343.129 C 254.245 343.857 255.205 344.883 255.873 346.208 C 256.541 347.532 256.875 349.089 256.875 350.88 L 256.875 352.835 L 241.984 352.835 L 241.944 353.68 C 241.958 355.216 242.253 356.584 242.828 357.785 C 243.405 358.987 244.213 359.933 245.251 360.625 C 246.29 361.316 247.498 361.662 248.875 361.662 C 250.225 361.662 251.412 361.454 252.438 361.038 C 253.464 360.623 254.367 360.056 255.147 359.339 L 256.161 360.913 C 255.328 361.68 254.318 362.317 253.133 362.822 C 251.948 363.327 250.529 363.579 248.875 363.579 Z M 242.143 350.916 L 254.492 350.916 L 254.492 350.341 C 254.492 349.127 254.251 348.037 253.769 347.072 C 253.285 346.105 252.596 345.346 251.703 344.797 C 250.809 344.247 249.734 343.972 248.478 343.972 C 247.339 343.972 246.313 344.27 245.4 344.865 C 244.486 345.459 243.742 346.271 243.166 347.3 C 242.591 348.33 242.237 349.497 242.105 350.802 L 242.143 350.916 Z M 260.568 363.177 L 260.568 361.507 L 263.804 361.258 L 263.804 344.356 L 260.568 344.107 L 260.568 342.418 L 265.908 342.418 L 266.107 346.14 C 266.796 344.836 267.722 343.826 268.887 343.108 C 270.052 342.393 271.442 342.035 273.057 342.035 C 275.386 342.035 277.16 342.722 278.379 344.097 C 279.595 345.473 280.204 347.625 280.204 350.553 L 280.204 361.258 L 283.44 361.507 L 283.44 363.177 L 274.584 363.177 L 274.584 361.507 L 277.821 361.258 L 277.821 350.571 C 277.821 348.167 277.364 346.472 276.452 345.489 C 275.538 344.503 274.234 344.011 272.539 344.011 C 270.766 344.011 269.364 344.49 268.331 345.45 C 267.299 346.409 266.584 347.663 266.187 349.21 L 266.187 361.258 L 269.424 361.507 L 269.424 363.177 L 260.568 363.177 Z" style="white-space: pre; stroke: rgb(186, 218, 85); stroke-width: 0px;"/>
  <path d="M 293.664 371.56 C 293.081 371.56 292.555 371.538 292.085 371.494 C 291.615 371.448 291.122 371.368 290.605 371.254 L 290.924 366.61 C 291.228 366.688 291.53 366.749 291.827 366.793 C 292.125 366.838 292.466 366.861 292.849 366.861 C 293.604 366.861 294.186 366.583 294.596 366.025 C 295.007 365.469 295.213 364.686 295.213 363.675 L 295.213 346.658 L 292.154 346.064 L 292.154 342.418 L 301.546 342.418 L 301.546 363.675 C 301.546 366.195 300.854 368.139 299.47 369.507 C 298.088 370.876 296.153 371.56 293.664 371.56 Z M 294.934 338.254 L 294.934 333.247 L 301.487 333.247 L 301.487 338.254 L 294.934 338.254 Z M 312.085 363.579 C 309.967 363.579 308.268 363.02 306.99 361.902 C 305.714 360.783 305.075 359.269 305.075 357.363 C 305.075 356.071 305.436 354.927 306.158 353.929 C 306.878 352.932 307.96 352.151 309.404 351.588 C 310.846 351.026 312.639 350.745 314.784 350.745 L 317.345 350.745 L 317.345 349.363 C 317.345 348.442 317.07 347.681 316.522 347.081 C 315.972 346.479 315.134 346.179 314.009 346.179 C 313.467 346.179 312.974 346.243 312.532 346.37 C 312.087 346.498 311.68 346.684 311.309 346.928 L 310.853 349.612 L 306.326 349.612 L 306.246 344.05 C 307.412 343.474 308.656 342.994 309.978 342.61 C 311.302 342.227 312.772 342.035 314.387 342.035 C 317.259 342.035 319.528 342.674 321.196 343.954 C 322.865 345.233 323.699 347.055 323.699 349.42 L 323.699 357.555 C 323.699 357.849 323.702 358.133 323.709 358.409 C 323.715 358.685 323.745 358.95 323.798 359.206 L 326.061 359.551 L 326.061 363.177 L 318.437 363.177 C 318.278 362.883 318.112 362.537 317.94 362.139 C 317.769 361.743 317.65 361.348 317.583 360.952 C 316.909 361.757 316.134 362.397 315.26 362.87 C 314.386 363.343 313.328 363.579 312.085 363.579 Z M 313.91 359.147 C 314.572 359.147 315.214 359.007 315.836 358.727 C 316.459 358.445 316.962 358.061 317.345 357.575 L 317.345 354.427 L 314.825 354.427 C 313.712 354.427 312.861 354.67 312.271 355.156 C 311.684 355.643 311.39 356.245 311.39 356.961 C 311.39 357.651 311.617 358.187 312.073 358.571 C 312.53 358.955 313.142 359.147 313.91 359.147 Z M 327.548 363.177 L 327.548 359.551 L 330.207 358.955 L 330.207 346.658 L 327.17 346.064 L 327.17 342.418 L 336.165 342.418 L 336.422 345.354 C 337.138 344.305 338.018 343.489 339.063 342.907 C 340.109 342.326 341.301 342.035 342.637 342.035 C 344.702 342.035 346.33 342.693 347.521 344.011 C 348.713 345.328 349.309 347.406 349.309 350.245 L 349.309 358.955 L 351.949 359.551 L 351.949 363.177 L 340.652 363.177 L 340.652 359.551 L 342.935 358.955 L 342.935 350.245 C 342.935 348.991 342.674 348.1 342.15 347.57 C 341.627 347.038 340.869 346.772 339.876 346.772 C 339.135 346.772 338.491 346.916 337.942 347.204 C 337.392 347.492 336.932 347.905 336.562 348.442 L 336.562 358.955 L 338.626 359.551 L 338.626 363.177 L 327.548 363.177 Z M 353.238 363.177 L 353.238 359.551 L 355.918 358.955 L 355.918 337.487 L 352.841 336.893 L 352.841 333.247 L 362.23 333.247 L 362.23 358.955 L 364.514 359.551 L 364.514 363.177 L 353.238 363.177 Z M 366.876 363.177 L 366.876 359.761 L 368.365 359.359 L 368.306 359.282 L 364.632 354.331 L 368.824 350.475 L 375.374 358.898 L 377.935 359.551 L 377.935 363.177 L 366.876 363.177 Z M 361.535 357.594 L 358.339 354.427 L 367.67 346.389 L 367.691 346.352 L 365.526 346.025 L 365.526 342.418 L 377.261 342.418 L 377.261 346.064 L 374.481 346.793 L 361.535 357.594 Z M 389.294 363.579 C 387.217 363.579 385.403 363.141 383.854 362.265 C 382.305 361.389 381.104 360.187 380.251 358.658 C 379.397 357.131 378.97 355.394 378.97 353.45 L 378.97 352.7 C 378.97 350.629 379.36 348.788 380.14 347.177 C 380.922 345.566 382.047 344.302 383.516 343.387 C 384.985 342.473 386.745 342.023 388.797 342.035 C 390.744 342.035 392.385 342.399 393.722 343.129 C 395.058 343.857 396.074 344.921 396.769 346.322 C 397.464 347.724 397.811 349.428 397.811 351.435 L 397.811 354.697 L 385.561 354.697 L 385.542 354.811 C 385.621 355.605 385.849 356.305 386.228 356.913 C 386.604 357.52 387.127 358.003 387.795 358.361 C 388.463 358.719 389.28 358.898 390.246 358.898 C 391.239 358.898 392.183 358.783 393.076 358.553 C 393.97 358.323 394.873 357.965 395.785 357.479 L 397.374 361.219 C 396.447 361.897 395.299 362.459 393.93 362.907 C 392.56 363.355 391.015 363.579 389.294 363.579 Z M 385.582 350.763 L 391.934 350.763 L 391.934 350.265 C 391.934 349.472 391.838 348.797 391.646 348.241 C 391.455 347.684 391.138 347.258 390.693 346.964 C 390.25 346.67 389.665 346.523 388.937 346.523 C 388.196 346.523 387.587 346.702 387.109 347.06 C 386.633 347.418 386.273 347.911 386.029 348.538 C 385.783 349.166 385.614 349.875 385.521 350.667 L 385.582 350.763 Z M 400.093 363.177 L 400.093 359.551 L 402.752 358.955 L 402.752 346.658 L 399.714 346.064 L 399.714 342.418 L 408.71 342.418 L 408.967 345.354 C 409.683 344.305 410.563 343.489 411.608 342.907 C 412.654 342.326 413.846 342.035 415.182 342.035 C 417.247 342.035 418.875 342.693 420.066 344.011 C 421.258 345.328 421.853 347.406 421.853 350.245 L 421.853 358.955 L 424.494 359.551 L 424.494 363.177 L 413.196 363.177 L 413.196 359.551 L 415.48 358.955 L 415.48 350.245 C 415.48 348.991 415.218 348.1 414.695 347.57 C 414.172 347.038 413.414 346.772 412.421 346.772 C 411.68 346.772 411.036 346.916 410.487 347.204 C 409.937 347.492 409.477 347.905 409.107 348.442 L 409.107 358.955 L 411.17 359.551 L 411.17 363.177 L 400.093 363.177 Z" style="white-space: pre;"/>
</svg>