<?xml version="1.0" encoding="utf-8"?>
<svg viewBox="185.025 234.23 265.744 61.612" xmlns="http://www.w3.org/2000/svg">
  <g>
    <path d="M 201.025 234.23 L 434.769 234.23 C 443.606 234.23 450.769 241.393 450.769 250.23 L 450.769 279.842 C 450.769 288.679 443.606 295.842 434.769 295.842 L 201.025 295.842 C 192.188 295.842 185.025 288.679 185.025 279.842 L 185.025 250.23 C 185.025 241.393 192.188 234.23 201.025 234.23 Z M 217.477 275.415 C 218.661 274.91 219.669 274.273 220.503 273.506 L 219.491 271.932 C 218.711 272.649 217.808 273.216 216.782 273.631 C 215.756 274.047 214.568 274.255 213.217 274.255 C 211.841 274.255 210.633 273.909 209.593 273.218 C 208.554 272.526 207.747 271.58 207.172 270.378 C 206.595 269.177 206.301 267.808 206.288 266.273 L 206.328 265.428 L 221.219 265.428 L 221.219 263.473 C 221.219 261.682 220.885 260.125 220.217 258.801 C 219.547 257.476 218.587 256.45 217.337 255.722 C 216.086 254.992 214.58 254.628 212.82 254.628 C 211.152 254.628 209.64 255.075 208.283 255.971 C 206.926 256.866 205.851 258.091 205.056 259.644 C 204.262 261.199 203.865 262.967 203.865 264.948 L 203.865 266.004 C 203.865 267.999 204.262 269.761 205.056 271.29 C 205.851 272.819 206.95 274.014 208.354 274.876 C 209.757 275.74 211.378 276.172 213.217 276.172 C 214.872 276.172 216.292 275.919 217.477 275.415 Z M 206.446 263.395 C 206.579 262.09 206.933 260.923 207.51 259.893 C 208.085 258.864 208.829 258.052 209.742 257.458 C 210.656 256.863 211.682 256.565 212.82 256.565 C 214.077 256.565 215.153 256.84 216.047 257.389 C 216.94 257.939 217.628 258.698 218.111 259.665 C 218.594 260.63 218.836 261.72 218.836 262.934 L 218.836 263.509 L 206.487 263.509 Z M 235.727 275.769 L 243.33 256.834 L 245.654 256.7 L 245.654 255.011 L 238.089 255.011 L 238.089 256.7 L 240.947 256.873 L 235.566 270.57 L 234.713 272.852 L 234.595 272.852 L 233.801 270.57 L 228.24 256.873 L 231.061 256.7 L 231.061 255.011 L 223.496 255.011 L 223.496 256.7 L 225.779 256.834 L 233.583 275.769 Z M 261.289 275.415 C 262.475 274.91 263.484 274.273 264.318 273.506 L 263.304 271.932 C 262.523 272.649 261.62 273.216 260.594 273.631 C 259.568 274.047 258.381 274.255 257.032 274.255 C 255.654 274.255 254.446 273.909 253.408 273.218 C 252.369 272.526 251.561 271.58 250.985 270.378 C 250.409 269.177 250.115 267.808 250.103 266.273 L 250.141 265.428 L 265.032 265.428 L 265.032 263.473 C 265.032 261.682 264.698 260.125 264.029 258.801 C 263.361 257.476 262.401 256.45 261.15 255.722 C 259.9 254.992 258.395 254.628 256.635 254.628 C 254.966 254.628 253.453 255.075 252.098 255.971 C 250.741 256.866 249.666 258.091 248.871 259.644 C 248.077 261.199 247.68 262.967 247.68 264.948 L 247.68 266.004 C 247.68 267.999 248.077 269.761 248.871 271.29 C 249.666 272.819 250.764 274.014 252.167 274.876 C 253.569 275.74 255.191 276.172 257.032 276.172 C 258.685 276.172 260.104 275.919 261.289 275.415 Z M 250.261 263.395 C 250.394 262.09 250.747 260.923 251.323 259.893 C 251.898 258.864 252.643 258.052 253.557 257.458 C 254.469 256.863 255.495 256.565 256.635 256.565 C 257.891 256.565 258.966 256.84 259.859 257.389 C 260.753 257.939 261.442 258.698 261.925 259.665 C 262.408 260.63 262.649 261.72 262.649 262.934 L 262.649 263.509 L 250.299 263.509 Z M 277.578 275.769 L 277.578 274.1 L 274.341 273.851 L 274.341 261.803 C 274.738 260.256 275.453 259.002 276.485 258.043 C 277.518 257.083 278.92 256.604 280.693 256.604 C 282.388 256.604 283.692 257.096 284.606 258.082 C 285.518 259.065 285.975 260.76 285.975 263.164 L 285.975 273.851 L 282.738 274.1 L 282.738 275.769 L 291.594 275.769 L 291.594 274.1 L 288.358 273.851 L 288.358 263.146 C 288.358 260.218 287.748 258.066 286.53 256.69 C 285.313 255.315 283.54 254.628 281.211 254.628 C 279.596 254.628 278.206 254.986 277.041 255.701 C 275.876 256.419 274.95 257.429 274.261 258.733 L 274.062 255.011 L 268.722 255.011 L 268.722 256.7 L 271.958 256.949 L 271.958 273.851 L 268.722 274.1 L 268.722 275.769 Z M 307.627 282.099 C 309.009 280.732 309.7 278.788 309.7 276.267 L 309.7 255.011 L 300.31 255.011 L 300.31 258.657 L 303.367 259.251 L 303.367 276.267 C 303.367 277.279 303.162 278.062 302.752 278.618 C 302.341 279.175 301.758 279.454 301.005 279.454 C 300.62 279.454 300.279 279.431 299.981 279.386 C 299.683 279.341 299.382 279.281 299.078 279.203 L 298.762 283.847 C 299.277 283.961 299.769 284.041 300.239 284.087 C 300.709 284.131 301.235 284.153 301.818 284.153 C 304.307 284.153 306.243 283.469 307.627 282.099 Z M 309.641 250.847 L 309.641 245.84 L 303.088 245.84 L 303.088 250.847 Z M 323.411 275.463 C 324.284 274.99 325.059 274.35 325.735 273.545 C 325.801 273.94 325.92 274.336 326.092 274.732 C 326.264 275.13 326.429 275.476 326.588 275.769 L 334.212 275.769 L 334.212 272.144 L 331.948 271.799 C 331.896 271.543 331.867 271.278 331.86 271.002 C 331.852 270.726 331.848 270.442 331.848 270.148 L 331.848 262.013 C 331.848 259.648 331.015 257.826 329.347 256.547 C 327.68 255.267 325.41 254.628 322.539 254.628 C 320.923 254.628 319.454 254.82 318.13 255.203 C 316.806 255.587 315.562 256.067 314.397 256.642 L 314.478 262.205 L 319.005 262.205 L 319.461 259.521 C 319.831 259.277 320.238 259.091 320.681 258.963 C 321.125 258.835 321.618 258.772 322.161 258.772 C 323.286 258.772 324.123 259.072 324.671 259.674 C 325.221 260.274 325.496 261.035 325.496 261.956 L 325.496 263.338 L 322.936 263.338 C 320.791 263.338 318.998 263.619 317.556 264.181 C 316.112 264.744 315.029 265.525 314.307 266.522 C 313.587 267.52 313.227 268.664 313.227 269.956 C 313.227 271.862 313.865 273.375 315.142 274.495 C 316.42 275.613 318.117 276.172 320.234 276.172 C 321.479 276.172 322.538 275.935 323.411 275.463 Z M 320.225 271.164 C 319.767 270.78 319.539 270.244 319.539 269.554 C 319.539 268.838 319.834 268.236 320.423 267.749 C 321.013 267.263 321.863 267.02 322.974 267.02 L 325.496 267.02 L 325.496 270.168 C 325.112 270.654 324.609 271.038 323.988 271.32 C 323.366 271.6 322.723 271.74 322.061 271.74 C 321.294 271.74 320.682 271.548 320.225 271.164 Z M 346.78 275.769 L 346.78 272.144 L 344.713 271.548 L 344.713 261.035 C 345.084 260.498 345.544 260.085 346.094 259.797 C 346.642 259.509 347.288 259.365 348.03 259.365 C 349.023 259.365 349.78 259.631 350.302 260.163 C 350.825 260.693 351.087 261.584 351.087 262.838 L 351.087 271.548 L 348.803 272.144 L 348.803 275.769 L 360.101 275.769 L 360.101 272.144 L 357.46 271.548 L 357.46 262.838 C 357.46 259.999 356.865 257.921 355.673 256.604 C 354.482 255.286 352.854 254.628 350.789 254.628 C 349.453 254.628 348.261 254.919 347.215 255.5 C 346.17 256.082 345.289 256.898 344.574 257.947 L 344.316 255.011 L 335.324 255.011 L 335.324 258.657 L 338.361 259.251 L 338.361 271.548 L 335.699 272.144 L 335.699 275.769 Z M 372.668 275.769 L 372.668 272.144 L 370.384 271.548 L 370.384 269.606 L 373.097 267.343 L 376.46 271.875 L 376.519 271.952 L 375.03 272.354 L 375.03 275.769 L 386.089 275.769 L 386.089 272.144 L 383.528 271.491 L 377.466 263.699 L 382.635 259.386 L 385.415 258.657 L 385.415 255.011 L 373.68 255.011 L 373.68 258.618 L 375.845 258.945 L 375.824 258.982 L 370.384 263.668 L 370.384 245.84 L 360.994 245.84 L 360.994 249.486 L 364.07 250.079 L 364.07 271.548 L 361.392 272.144 L 361.392 275.769 Z M 402.084 275.5 C 403.453 275.052 404.601 274.489 405.528 273.812 L 403.939 270.072 C 403.025 270.558 402.122 270.916 401.23 271.146 C 400.337 271.376 399.393 271.491 398.4 271.491 C 397.434 271.491 396.617 271.312 395.949 270.954 C 395.279 270.596 394.756 270.113 394.379 269.506 C 394.003 268.898 393.774 268.198 393.694 267.404 L 393.715 267.29 L 405.965 267.29 L 405.965 264.028 C 405.965 262.021 405.618 260.316 404.923 258.915 C 404.228 257.514 403.211 256.45 401.873 255.722 C 400.537 254.992 398.896 254.628 396.951 254.628 C 394.899 254.615 393.139 255.066 391.67 255.98 C 390.2 256.895 389.074 258.159 388.294 259.77 C 387.513 261.381 387.122 263.222 387.122 265.293 L 387.122 266.043 C 387.122 267.987 387.549 269.724 388.403 271.251 C 389.257 272.78 390.458 273.982 392.006 274.858 C 393.555 275.734 395.369 276.172 397.448 276.172 C 399.167 276.172 400.712 275.948 402.084 275.5 Z M 393.675 263.26 C 393.768 262.468 393.936 261.759 394.181 261.131 C 394.425 260.504 394.786 260.011 395.263 259.653 C 395.739 259.295 396.348 259.116 397.088 259.116 C 397.817 259.116 398.403 259.263 398.847 259.557 C 399.29 259.851 399.608 260.277 399.8 260.834 C 399.992 261.39 400.088 262.065 400.088 262.858 L 400.088 263.356 L 393.734 263.356 Z M 419.322 275.769 L 419.322 272.144 L 417.256 271.548 L 417.256 261.035 C 417.628 260.498 418.088 260.085 418.637 259.797 C 419.187 259.509 419.832 259.365 420.573 259.365 C 421.566 259.365 422.324 259.631 422.847 260.163 C 423.369 260.693 423.629 261.584 423.629 262.838 L 423.629 271.548 L 421.348 272.144 L 421.348 275.769 L 432.643 275.769 L 432.643 272.144 L 430.003 271.548 L 430.003 262.838 C 430.003 259.999 429.407 257.921 428.216 256.604 C 427.026 255.286 425.398 254.628 423.331 254.628 C 421.995 254.628 420.804 254.919 419.759 255.5 C 418.713 256.082 417.833 256.898 417.119 257.947 L 416.861 255.011 L 407.866 255.011 L 407.866 258.657 L 410.904 259.251 L 410.904 271.548 L 408.244 272.144 L 408.244 275.769 Z" style="stroke-width: 4px; paint-order: stroke; stroke: rgb(255, 255, 255); stroke-opacity: 0; fill: rgb(255, 255, 255);"/>
  </g>
</svg>