<?xml version="1.0" encoding="utf-8"?>
<svg viewBox="161.212 396.79 265.744 61.612" xmlns="http://www.w3.org/2000/svg">
  <rect style="stroke-width: 4px; paint-order: stroke; stroke: rgb(255, 255, 255); stroke-opacity: 0; fill: rgb(255, 255, 255);" x="161.212" y="396.79" width="265.744" height="61.612" rx="16" ry="16"/>
  <path d="M 189.404 438.732 C 187.565 438.732 185.944 438.3 184.541 437.436 C 183.137 436.574 182.038 435.379 181.243 433.85 C 180.449 432.321 180.052 430.559 180.052 428.564 L 180.052 427.508 C 180.052 425.527 180.449 423.759 181.243 422.204 C 182.038 420.651 183.113 419.426 184.47 418.531 C 185.827 417.635 187.339 417.188 189.007 417.188 C 190.767 417.188 192.273 417.552 193.524 418.282 C 194.774 419.01 195.734 420.036 196.404 421.361 C 197.072 422.685 197.406 424.242 197.406 426.033 L 197.406 427.988 L 182.515 427.988 L 182.475 428.833 C 182.488 430.368 182.782 431.737 183.359 432.938 C 183.934 434.14 184.741 435.086 185.78 435.778 C 186.82 436.469 188.028 436.815 189.404 436.815 C 190.755 436.815 191.943 436.607 192.969 436.191 C 193.995 435.776 194.898 435.209 195.678 434.492 L 196.69 436.066 C 195.856 436.833 194.848 437.47 193.664 437.975 C 192.479 438.479 191.059 438.732 189.404 438.732 Z M 182.674 426.069 L 195.023 426.069 L 195.023 425.494 C 195.023 424.28 194.781 423.19 194.298 422.225 C 193.815 421.258 193.127 420.499 192.234 419.949 C 191.34 419.4 190.264 419.125 189.007 419.125 C 187.869 419.125 186.843 419.423 185.929 420.018 C 185.016 420.612 184.272 421.424 183.697 422.453 C 183.12 423.483 182.766 424.65 182.633 425.955 L 182.674 426.069 Z M 209.77 438.329 L 201.966 419.394 L 199.683 419.26 L 199.683 417.571 L 207.248 417.571 L 207.248 419.26 L 204.427 419.433 L 209.988 433.13 L 210.782 435.412 L 210.9 435.412 L 211.753 433.13 L 217.134 419.433 L 214.276 419.26 L 214.276 417.571 L 221.841 417.571 L 221.841 419.26 L 219.517 419.394 L 211.914 438.329 L 209.77 438.329 Z M 233.219 438.732 C 231.378 438.732 229.756 438.3 228.354 437.436 C 226.951 436.574 225.853 435.379 225.058 433.85 C 224.264 432.321 223.867 430.559 223.867 428.564 L 223.867 427.508 C 223.867 425.527 224.264 423.759 225.058 422.204 C 225.853 420.651 226.928 419.426 228.285 418.531 C 229.64 417.635 231.153 417.188 232.822 417.188 C 234.582 417.188 236.087 417.552 237.337 418.282 C 238.588 419.01 239.548 420.036 240.216 421.361 C 240.885 422.685 241.219 424.242 241.219 426.033 L 241.219 427.988 L 226.328 427.988 L 226.29 428.833 C 226.302 430.368 226.596 431.737 227.172 432.938 C 227.748 434.14 228.556 435.086 229.595 435.778 C 230.633 436.469 231.841 436.815 233.219 436.815 C 234.568 436.815 235.755 436.607 236.781 436.191 C 237.807 435.776 238.71 435.209 239.491 434.492 L 240.505 436.066 C 239.671 436.833 238.662 437.47 237.476 437.975 C 236.291 438.479 234.872 438.732 233.219 438.732 Z M 226.486 426.069 L 238.836 426.069 L 238.836 425.494 C 238.836 424.28 238.595 423.19 238.112 422.225 C 237.629 421.258 236.94 420.499 236.046 419.949 C 235.153 419.4 234.078 419.125 232.822 419.125 C 231.682 419.125 230.656 419.423 229.744 420.018 C 228.83 420.612 228.085 421.424 227.51 422.453 C 226.934 423.483 226.581 424.65 226.448 425.955 L 226.486 426.069 Z M 244.909 438.329 L 244.909 436.66 L 248.145 436.411 L 248.145 419.509 L 244.909 419.26 L 244.909 417.571 L 250.249 417.571 L 250.448 421.293 C 251.137 419.989 252.063 418.979 253.228 418.261 C 254.393 417.546 255.783 417.188 257.398 417.188 C 259.727 417.188 261.5 417.875 262.717 419.25 C 263.935 420.626 264.545 422.778 264.545 425.706 L 264.545 436.411 L 267.781 436.66 L 267.781 438.329 L 258.925 438.329 L 258.925 436.66 L 262.162 436.411 L 262.162 425.724 C 262.162 423.32 261.705 421.625 260.793 420.642 C 259.879 419.656 258.575 419.164 256.88 419.164 C 255.107 419.164 253.705 419.643 252.672 420.603 C 251.64 421.562 250.925 422.816 250.528 424.363 L 250.528 436.411 L 253.765 436.66 L 253.765 438.329 L 244.909 438.329 Z" style="white-space: pre; stroke: rgb(186, 218, 85); stroke-width: 0px;"/>
  <path d="M 278.005 446.713 C 277.422 446.713 276.896 446.691 276.426 446.647 C 275.956 446.601 275.464 446.521 274.949 446.407 L 275.265 441.763 C 275.569 441.841 275.87 441.901 276.168 441.946 C 276.466 441.991 276.807 442.014 277.192 442.014 C 277.945 442.014 278.528 441.735 278.939 441.178 C 279.349 440.622 279.554 439.839 279.554 438.827 L 279.554 421.811 L 276.497 421.217 L 276.497 417.571 L 285.887 417.571 L 285.887 438.827 C 285.887 441.348 285.196 443.292 283.814 444.659 C 282.43 446.029 280.494 446.713 278.005 446.713 Z M 279.275 413.407 L 279.275 408.4 L 285.828 408.4 L 285.828 413.407 L 279.275 413.407 Z M 296.421 438.732 C 294.304 438.732 292.607 438.173 291.329 437.055 C 290.052 435.935 289.414 434.422 289.414 432.516 C 289.414 431.224 289.774 430.08 290.494 429.082 C 291.216 428.085 292.299 427.304 293.743 426.741 C 295.185 426.179 296.978 425.898 299.123 425.898 L 301.683 425.898 L 301.683 424.516 C 301.683 423.595 301.408 422.834 300.858 422.234 C 300.31 421.632 299.473 421.332 298.348 421.332 C 297.805 421.332 297.312 421.395 296.868 421.523 C 296.425 421.651 296.018 421.837 295.648 422.081 L 295.192 424.765 L 290.665 424.765 L 290.584 419.202 C 291.749 418.627 292.993 418.147 294.317 417.763 C 295.641 417.38 297.11 417.188 298.726 417.188 C 301.597 417.188 303.867 417.827 305.534 419.107 C 307.202 420.386 308.035 422.208 308.035 424.573 L 308.035 432.708 C 308.035 433.002 308.039 433.286 308.047 433.562 C 308.054 433.838 308.083 434.103 308.135 434.359 L 310.399 434.704 L 310.399 438.329 L 302.775 438.329 C 302.616 438.036 302.451 437.69 302.279 437.292 C 302.107 436.896 301.988 436.5 301.922 436.105 C 301.246 436.91 300.471 437.55 299.598 438.023 C 298.725 438.495 297.666 438.732 296.421 438.732 Z M 298.248 434.3 C 298.91 434.3 299.553 434.16 300.175 433.88 C 300.796 433.598 301.299 433.214 301.683 432.728 L 301.683 429.58 L 299.161 429.58 C 298.05 429.58 297.2 429.823 296.61 430.309 C 296.021 430.796 295.726 431.398 295.726 432.114 C 295.726 432.804 295.954 433.34 296.412 433.724 C 296.869 434.108 297.481 434.3 298.248 434.3 Z M 311.886 438.329 L 311.886 434.704 L 314.548 434.108 L 314.548 421.811 L 311.511 421.217 L 311.511 417.571 L 320.503 417.571 L 320.761 420.507 C 321.476 419.458 322.357 418.642 323.402 418.06 C 324.448 417.479 325.64 417.188 326.976 417.188 C 329.041 417.188 330.669 417.846 331.86 419.164 C 333.052 420.481 333.647 422.559 333.647 425.398 L 333.647 434.108 L 336.288 434.704 L 336.288 438.329 L 324.99 438.329 L 324.99 434.704 L 327.274 434.108 L 327.274 425.398 C 327.274 424.144 327.012 423.253 326.489 422.723 C 325.967 422.191 325.21 421.925 324.217 421.925 C 323.475 421.925 322.829 422.069 322.281 422.357 C 321.731 422.645 321.271 423.058 320.9 423.595 L 320.9 434.108 L 322.967 434.704 L 322.967 438.329 L 311.886 438.329 Z M 337.579 438.329 L 337.579 434.704 L 340.257 434.108 L 340.257 412.639 L 337.181 412.046 L 337.181 408.4 L 346.571 408.4 L 346.571 434.108 L 348.855 434.704 L 348.855 438.329 L 337.579 438.329 Z M 351.217 438.329 L 351.217 434.914 L 352.706 434.512 L 352.647 434.435 L 348.973 429.484 L 353.162 425.628 L 359.715 434.051 L 362.276 434.704 L 362.276 438.329 L 351.217 438.329 Z M 345.876 432.746 L 342.68 429.58 L 352.011 421.542 L 352.032 421.505 L 349.867 421.178 L 349.867 417.571 L 361.602 417.571 L 361.602 421.217 L 358.822 421.946 L 345.876 432.746 Z M 373.635 438.732 C 371.556 438.732 369.742 438.294 368.193 437.418 C 366.645 436.542 365.444 435.34 364.59 433.811 C 363.736 432.284 363.309 430.547 363.309 428.603 L 363.309 427.853 C 363.309 425.782 363.7 423.941 364.481 422.33 C 365.261 420.719 366.387 419.455 367.857 418.54 C 369.326 417.626 371.086 417.175 373.138 417.188 C 375.083 417.188 376.724 417.552 378.06 418.282 C 379.398 419.01 380.415 420.074 381.11 421.475 C 381.805 422.876 382.152 424.581 382.152 426.588 L 382.152 429.85 L 369.902 429.85 L 369.881 429.964 C 369.961 430.758 370.19 431.458 370.566 432.066 C 370.943 432.673 371.466 433.156 372.136 433.514 C 372.804 433.872 373.621 434.051 374.587 434.051 C 375.58 434.051 376.524 433.936 377.417 433.706 C 378.309 433.476 379.212 433.118 380.126 432.632 L 381.715 436.372 C 380.788 437.049 379.64 437.612 378.271 438.06 C 376.899 438.508 375.354 438.732 373.635 438.732 Z M 369.921 425.916 L 376.275 425.916 L 376.275 425.418 C 376.275 424.625 376.179 423.95 375.987 423.394 C 375.795 422.837 375.477 422.411 375.034 422.117 C 374.59 421.823 374.004 421.676 373.275 421.676 C 372.535 421.676 371.926 421.855 371.45 422.213 C 370.973 422.571 370.612 423.064 370.368 423.691 C 370.123 424.319 369.955 425.028 369.862 425.82 L 369.921 425.916 Z M 384.431 438.329 L 384.431 434.704 L 387.091 434.108 L 387.091 421.811 L 384.053 421.217 L 384.053 417.571 L 393.048 417.571 L 393.306 420.507 C 394.02 419.458 394.9 418.642 395.946 418.06 C 396.991 417.479 398.182 417.188 399.518 417.188 C 401.585 417.188 403.213 417.846 404.403 419.164 C 405.594 420.481 406.19 422.559 406.19 425.398 L 406.19 434.108 L 408.83 434.704 L 408.83 438.329 L 397.535 438.329 L 397.535 434.704 L 399.816 434.108 L 399.816 425.398 C 399.816 424.144 399.556 423.253 399.034 422.723 C 398.511 422.191 397.753 421.925 396.76 421.925 C 396.019 421.925 395.374 422.069 394.824 422.357 C 394.275 422.645 393.815 423.058 393.443 423.595 L 393.443 434.108 L 395.509 434.704 L 395.509 438.329 L 384.431 438.329 Z" style="white-space: pre;"/>
</svg>