<?xml version="1.0" encoding="utf-8"?>
<svg viewBox="0 0 500 500" xmlns="http://www.w3.org/2000/svg">
  <defs>
    <radialGradient gradientUnits="userSpaceOnUse" cx="233.484" cy="116.176" r="50" id="gradient-0" spreadMethod="pad" gradientTransform="matrix(0.75, 0, 0, 0.75, 62.33666, 37.925049)">
      <stop offset="0" style="stop-color: rgba(0, 0, 0, 1)"/>
      <stop offset="1" style="stop-color: rgba(0, 0, 0, 1)"/>
    </radialGradient>
  </defs>
  <rect x="49.318" y="49.686" width="418.395" height="421.426" style="stroke: rgb(182, 182, 182); fill: rgb(160, 160, 160);"/>
  <rect style="fill: url(#gradient-0); paint-order: stroke; stroke-width: 4px; stroke: rgb(0, 0, 0);" x="199.949" y="87.556" width="75" height="75" rx="16" ry="16"/>
  <path d="M 223.39 147.775 C 225.12 148.565 229.73 149.795 234.12 149.795 C 243.62 149.795 248.88 144.755 248.88 133.015 L 248.88 100.975 L 229.01 100.975 L 229.01 110.835 L 236.78 110.835 L 236.78 132.515 C 236.78 136.835 234.91 138.845 231.82 138.845 C 228.72 138.845 226.06 137.835 224.69 137.045 L 223.39 147.775 Z" style="fill: rgb(255, 255, 255); stroke-width: 4px;"/>
  <rect style="paint-order: stroke; stroke: rgb(0, 0, 0); fill: rgb(255, 255, 255); stroke-width: 4px; fill-rule: nonzero;" x="75.804" y="185.384" width="75" height="75" rx="16" ry="16"/>
  <path d="M 99.245 245.603 C 100.975 246.393 105.585 247.623 109.975 247.623 C 119.475 247.623 124.735 242.583 124.735 230.843 L 124.735 198.803 L 104.865 198.803 L 104.865 208.663 L 112.635 208.663 L 112.635 230.343 C 112.635 234.663 110.765 236.673 107.675 236.673 C 104.575 236.673 101.915 235.663 100.545 234.873 L 99.245 245.603 Z" style=""/>
  <rect style="paint-order: stroke; fill: rgb(255, 255, 255); stroke-width: 4px; fill-rule: nonzero; stroke: rgb(255, 255, 255);" x="297.386" y="80.263" width="75" height="75" rx="16" ry="16"/>
  <path d="M 320.827 140.482 C 322.557 141.272 327.167 142.502 331.557 142.502 C 341.057 142.502 346.317 137.462 346.317 125.722 L 346.317 93.682 L 326.447 93.682 L 326.447 103.542 L 334.217 103.542 L 334.217 125.222 C 334.217 129.542 332.347 131.552 329.257 131.552 C 326.157 131.552 323.497 130.542 322.127 129.752 L 320.827 140.482 Z" style=""/>
  <rect style="stroke-width: 4px; fill: rgb(253, 233, 23); paint-order: stroke; stroke: rgb(253, 233, 23);" x="101.873" y="80.263" width="75" height="75" rx="16" ry="16"/>
  <path d="M 125.314 140.482 C 127.044 141.272 131.654 142.502 136.044 142.502 C 145.544 142.502 150.804 137.462 150.804 125.722 L 150.804 93.682 L 130.934 93.682 L 130.934 103.542 L 138.704 103.542 L 138.704 125.222 C 138.704 129.542 136.834 131.552 133.744 131.552 C 130.644 131.552 127.984 130.542 126.614 129.752 L 125.314 140.482 Z" style="stroke-width: 4px;"/>
  <g>
    <rect style="stroke-width: 4px; fill: rgb(253, 233, 23); paint-order: stroke; stroke: rgb(255, 255, 255); stroke-opacity: 0;" x="176.873" y="321.637" width="265.744" height="61.612" rx="16" ry="16"/>
    <path d="M 205.065 363.579 C 203.226 363.579 201.604 363.147 200.2 362.283 C 198.798 361.421 197.699 360.226 196.905 358.697 C 196.11 357.168 195.713 355.406 195.713 353.411 L 195.713 352.355 C 195.713 350.374 196.11 348.606 196.905 347.051 C 197.699 345.498 198.775 344.273 200.132 343.378 C 201.489 342.482 203.001 342.035 204.668 342.035 C 206.429 342.035 207.934 342.399 209.186 343.129 C 210.436 343.857 211.395 344.883 212.065 346.208 C 212.733 347.532 213.068 349.089 213.068 350.88 L 213.068 352.835 L 198.177 352.835 L 198.136 353.68 C 198.149 355.216 198.444 356.584 199.021 357.785 C 199.596 358.987 200.403 359.933 201.441 360.625 C 202.481 361.316 203.689 361.662 205.065 361.662 C 206.416 361.662 207.604 361.454 208.63 361.038 C 209.656 360.623 210.559 360.056 211.339 359.339 L 212.351 360.913 C 211.518 361.68 210.509 362.317 209.325 362.822 C 208.14 363.327 206.72 363.579 205.065 363.579 Z M 198.335 350.916 L 210.685 350.916 L 210.685 350.341 C 210.685 349.127 210.443 348.037 209.959 347.072 C 209.477 346.105 208.789 345.346 207.895 344.797 C 207.001 344.247 205.926 343.972 204.668 343.972 C 203.53 343.972 202.504 344.27 201.59 344.865 C 200.678 345.459 199.934 346.271 199.359 347.3 C 198.782 348.33 198.427 349.497 198.295 350.802 L 198.335 350.916 Z M 225.431 363.177 L 217.63 344.241 L 215.347 344.107 L 215.347 342.418 L 222.911 342.418 L 222.911 344.107 L 220.091 344.28 L 225.651 357.977 L 226.446 360.259 L 226.564 360.259 L 227.417 357.977 L 232.798 344.28 L 229.94 344.107 L 229.94 342.418 L 237.505 342.418 L 237.505 344.107 L 235.181 344.241 L 227.576 363.177 L 225.431 363.177 Z M 248.875 363.579 C 247.035 363.579 245.413 363.147 244.01 362.283 C 242.608 361.421 241.509 360.226 240.715 358.697 C 239.921 357.168 239.523 355.406 239.523 353.411 L 239.523 352.355 C 239.523 350.374 239.921 348.606 240.715 347.051 C 241.509 345.498 242.585 344.273 243.942 343.378 C 245.297 342.482 246.809 342.035 248.478 342.035 C 250.239 342.035 251.744 342.399 252.994 343.129 C 254.245 343.857 255.205 344.883 255.873 346.208 C 256.541 347.532 256.875 349.089 256.875 350.88 L 256.875 352.835 L 241.984 352.835 L 241.944 353.68 C 241.958 355.216 242.253 356.584 242.828 357.785 C 243.405 358.987 244.213 359.933 245.251 360.625 C 246.29 361.316 247.498 361.662 248.875 361.662 C 250.225 361.662 251.412 361.454 252.438 361.038 C 253.464 360.623 254.367 360.056 255.147 359.339 L 256.161 360.913 C 255.328 361.68 254.318 362.317 253.133 362.822 C 251.948 363.327 250.529 363.579 248.875 363.579 Z M 242.143 350.916 L 254.492 350.916 L 254.492 350.341 C 254.492 349.127 254.251 348.037 253.769 347.072 C 253.285 346.105 252.596 345.346 251.703 344.797 C 250.809 344.247 249.734 343.972 248.478 343.972 C 247.339 343.972 246.313 344.27 245.4 344.865 C 244.486 345.459 243.742 346.271 243.166 347.3 C 242.591 348.33 242.237 349.497 242.105 350.802 L 242.143 350.916 Z M 260.568 363.177 L 260.568 361.507 L 263.804 361.258 L 263.804 344.356 L 260.568 344.107 L 260.568 342.418 L 265.908 342.418 L 266.107 346.14 C 266.796 344.836 267.722 343.826 268.887 343.108 C 270.052 342.393 271.442 342.035 273.057 342.035 C 275.386 342.035 277.16 342.722 278.379 344.097 C 279.595 345.473 280.204 347.625 280.204 350.553 L 280.204 361.258 L 283.44 361.507 L 283.44 363.177 L 274.584 363.177 L 274.584 361.507 L 277.821 361.258 L 277.821 350.571 C 277.821 348.167 277.364 346.472 276.452 345.489 C 275.538 344.503 274.234 344.011 272.539 344.011 C 270.766 344.011 269.364 344.49 268.331 345.45 C 267.299 346.409 266.584 347.663 266.187 349.21 L 266.187 361.258 L 269.424 361.507 L 269.424 363.177 L 260.568 363.177 Z" style="white-space: pre; stroke: rgb(186, 218, 85); stroke-width: 0px;"/>
    <path d="M 293.664 371.56 C 293.081 371.56 292.555 371.538 292.085 371.494 C 291.615 371.448 291.122 371.368 290.605 371.254 L 290.924 366.61 C 291.228 366.688 291.53 366.749 291.827 366.793 C 292.125 366.838 292.466 366.861 292.849 366.861 C 293.604 366.861 294.186 366.583 294.596 366.025 C 295.007 365.469 295.213 364.686 295.213 363.675 L 295.213 346.658 L 292.154 346.064 L 292.154 342.418 L 301.546 342.418 L 301.546 363.675 C 301.546 366.195 300.854 368.139 299.47 369.507 C 298.088 370.876 296.153 371.56 293.664 371.56 Z M 294.934 338.254 L 294.934 333.247 L 301.487 333.247 L 301.487 338.254 L 294.934 338.254 Z M 312.085 363.579 C 309.967 363.579 308.268 363.02 306.99 361.902 C 305.714 360.783 305.075 359.269 305.075 357.363 C 305.075 356.071 305.436 354.927 306.158 353.929 C 306.878 352.932 307.96 352.151 309.404 351.588 C 310.846 351.026 312.639 350.745 314.784 350.745 L 317.345 350.745 L 317.345 349.363 C 317.345 348.442 317.07 347.681 316.522 347.081 C 315.972 346.479 315.134 346.179 314.009 346.179 C 313.467 346.179 312.974 346.243 312.532 346.37 C 312.087 346.498 311.68 346.684 311.309 346.928 L 310.853 349.612 L 306.326 349.612 L 306.246 344.05 C 307.412 343.474 308.656 342.994 309.978 342.61 C 311.302 342.227 312.772 342.035 314.387 342.035 C 317.259 342.035 319.528 342.674 321.196 343.954 C 322.865 345.233 323.699 347.055 323.699 349.42 L 323.699 357.555 C 323.699 357.849 323.702 358.133 323.709 358.409 C 323.715 358.685 323.745 358.95 323.798 359.206 L 326.061 359.551 L 326.061 363.177 L 318.437 363.177 C 318.278 362.883 318.112 362.537 317.94 362.139 C 317.769 361.743 317.65 361.348 317.583 360.952 C 316.909 361.757 316.134 362.397 315.26 362.87 C 314.386 363.343 313.328 363.579 312.085 363.579 Z M 313.91 359.147 C 314.572 359.147 315.214 359.007 315.836 358.727 C 316.459 358.445 316.962 358.061 317.345 357.575 L 317.345 354.427 L 314.825 354.427 C 313.712 354.427 312.861 354.67 312.271 355.156 C 311.684 355.643 311.39 356.245 311.39 356.961 C 311.39 357.651 311.617 358.187 312.073 358.571 C 312.53 358.955 313.142 359.147 313.91 359.147 Z M 327.548 363.177 L 327.548 359.551 L 330.207 358.955 L 330.207 346.658 L 327.17 346.064 L 327.17 342.418 L 336.165 342.418 L 336.422 345.354 C 337.138 344.305 338.018 343.489 339.063 342.907 C 340.109 342.326 341.301 342.035 342.637 342.035 C 344.702 342.035 346.33 342.693 347.521 344.011 C 348.713 345.328 349.309 347.406 349.309 350.245 L 349.309 358.955 L 351.949 359.551 L 351.949 363.177 L 340.652 363.177 L 340.652 359.551 L 342.935 358.955 L 342.935 350.245 C 342.935 348.991 342.674 348.1 342.15 347.57 C 341.627 347.038 340.869 346.772 339.876 346.772 C 339.135 346.772 338.491 346.916 337.942 347.204 C 337.392 347.492 336.932 347.905 336.562 348.442 L 336.562 358.955 L 338.626 359.551 L 338.626 363.177 L 327.548 363.177 Z M 353.238 363.177 L 353.238 359.551 L 355.918 358.955 L 355.918 337.487 L 352.841 336.893 L 352.841 333.247 L 362.23 333.247 L 362.23 358.955 L 364.514 359.551 L 364.514 363.177 L 353.238 363.177 Z M 366.876 363.177 L 366.876 359.761 L 368.365 359.359 L 368.306 359.282 L 364.632 354.331 L 368.824 350.475 L 375.374 358.898 L 377.935 359.551 L 377.935 363.177 L 366.876 363.177 Z M 361.535 357.594 L 358.339 354.427 L 367.67 346.389 L 367.691 346.352 L 365.526 346.025 L 365.526 342.418 L 377.261 342.418 L 377.261 346.064 L 374.481 346.793 L 361.535 357.594 Z M 389.294 363.579 C 387.217 363.579 385.403 363.141 383.854 362.265 C 382.305 361.389 381.104 360.187 380.251 358.658 C 379.397 357.131 378.97 355.394 378.97 353.45 L 378.97 352.7 C 378.97 350.629 379.36 348.788 380.14 347.177 C 380.922 345.566 382.047 344.302 383.516 343.387 C 384.985 342.473 386.745 342.023 388.797 342.035 C 390.744 342.035 392.385 342.399 393.722 343.129 C 395.058 343.857 396.074 344.921 396.769 346.322 C 397.464 347.724 397.811 349.428 397.811 351.435 L 397.811 354.697 L 385.561 354.697 L 385.542 354.811 C 385.621 355.605 385.849 356.305 386.228 356.913 C 386.604 357.52 387.127 358.003 387.795 358.361 C 388.463 358.719 389.28 358.898 390.246 358.898 C 391.239 358.898 392.183 358.783 393.076 358.553 C 393.97 358.323 394.873 357.965 395.785 357.479 L 397.374 361.219 C 396.447 361.897 395.299 362.459 393.93 362.907 C 392.56 363.355 391.015 363.579 389.294 363.579 Z M 385.582 350.763 L 391.934 350.763 L 391.934 350.265 C 391.934 349.472 391.838 348.797 391.646 348.241 C 391.455 347.684 391.138 347.258 390.693 346.964 C 390.25 346.67 389.665 346.523 388.937 346.523 C 388.196 346.523 387.587 346.702 387.109 347.06 C 386.633 347.418 386.273 347.911 386.029 348.538 C 385.783 349.166 385.614 349.875 385.521 350.667 L 385.582 350.763 Z M 400.093 363.177 L 400.093 359.551 L 402.752 358.955 L 402.752 346.658 L 399.714 346.064 L 399.714 342.418 L 408.71 342.418 L 408.967 345.354 C 409.683 344.305 410.563 343.489 411.608 342.907 C 412.654 342.326 413.846 342.035 415.182 342.035 C 417.247 342.035 418.875 342.693 420.066 344.011 C 421.258 345.328 421.853 347.406 421.853 350.245 L 421.853 358.955 L 424.494 359.551 L 424.494 363.177 L 413.196 363.177 L 413.196 359.551 L 415.48 358.955 L 415.48 350.245 C 415.48 348.991 415.218 348.1 414.695 347.57 C 414.172 347.038 413.414 346.772 412.421 346.772 C 411.68 346.772 411.036 346.916 410.487 347.204 C 409.937 347.492 409.477 347.905 409.107 348.442 L 409.107 358.955 L 411.17 359.551 L 411.17 363.177 L 400.093 363.177 Z" style="white-space: pre;"/>
  </g>
  <rect style="stroke-width: 4px; paint-order: stroke; stroke: rgb(255, 255, 255); stroke-opacity: 0; fill: rgb(255, 255, 255);" x="161.212" y="396.79" width="265.744" height="61.612" rx="16" ry="16"/>
  <path d="M 189.404 438.732 C 187.565 438.732 185.944 438.3 184.541 437.436 C 183.137 436.574 182.038 435.379 181.243 433.85 C 180.449 432.321 180.052 430.559 180.052 428.564 L 180.052 427.508 C 180.052 425.527 180.449 423.759 181.243 422.204 C 182.038 420.651 183.113 419.426 184.47 418.531 C 185.827 417.635 187.339 417.188 189.007 417.188 C 190.767 417.188 192.273 417.552 193.524 418.282 C 194.774 419.01 195.734 420.036 196.404 421.361 C 197.072 422.685 197.406 424.242 197.406 426.033 L 197.406 427.988 L 182.515 427.988 L 182.475 428.833 C 182.488 430.368 182.782 431.737 183.359 432.938 C 183.934 434.14 184.741 435.086 185.78 435.778 C 186.82 436.469 188.028 436.815 189.404 436.815 C 190.755 436.815 191.943 436.607 192.969 436.191 C 193.995 435.776 194.898 435.209 195.678 434.492 L 196.69 436.066 C 195.856 436.833 194.848 437.47 193.664 437.975 C 192.479 438.479 191.059 438.732 189.404 438.732 Z M 182.674 426.069 L 195.023 426.069 L 195.023 425.494 C 195.023 424.28 194.781 423.19 194.298 422.225 C 193.815 421.258 193.127 420.499 192.234 419.949 C 191.34 419.4 190.264 419.125 189.007 419.125 C 187.869 419.125 186.843 419.423 185.929 420.018 C 185.016 420.612 184.272 421.424 183.697 422.453 C 183.12 423.483 182.766 424.65 182.633 425.955 L 182.674 426.069 Z M 209.77 438.329 L 201.966 419.394 L 199.683 419.26 L 199.683 417.571 L 207.248 417.571 L 207.248 419.26 L 204.427 419.433 L 209.988 433.13 L 210.782 435.412 L 210.9 435.412 L 211.753 433.13 L 217.134 419.433 L 214.276 419.26 L 214.276 417.571 L 221.841 417.571 L 221.841 419.26 L 219.517 419.394 L 211.914 438.329 L 209.77 438.329 Z M 233.219 438.732 C 231.378 438.732 229.756 438.3 228.354 437.436 C 226.951 436.574 225.853 435.379 225.058 433.85 C 224.264 432.321 223.867 430.559 223.867 428.564 L 223.867 427.508 C 223.867 425.527 224.264 423.759 225.058 422.204 C 225.853 420.651 226.928 419.426 228.285 418.531 C 229.64 417.635 231.153 417.188 232.822 417.188 C 234.582 417.188 236.087 417.552 237.337 418.282 C 238.588 419.01 239.548 420.036 240.216 421.361 C 240.885 422.685 241.219 424.242 241.219 426.033 L 241.219 427.988 L 226.328 427.988 L 226.29 428.833 C 226.302 430.368 226.596 431.737 227.172 432.938 C 227.748 434.14 228.556 435.086 229.595 435.778 C 230.633 436.469 231.841 436.815 233.219 436.815 C 234.568 436.815 235.755 436.607 236.781 436.191 C 237.807 435.776 238.71 435.209 239.491 434.492 L 240.505 436.066 C 239.671 436.833 238.662 437.47 237.476 437.975 C 236.291 438.479 234.872 438.732 233.219 438.732 Z M 226.486 426.069 L 238.836 426.069 L 238.836 425.494 C 238.836 424.28 238.595 423.19 238.112 422.225 C 237.629 421.258 236.94 420.499 236.046 419.949 C 235.153 419.4 234.078 419.125 232.822 419.125 C 231.682 419.125 230.656 419.423 229.744 420.018 C 228.83 420.612 228.085 421.424 227.51 422.453 C 226.934 423.483 226.581 424.65 226.448 425.955 L 226.486 426.069 Z M 244.909 438.329 L 244.909 436.66 L 248.145 436.411 L 248.145 419.509 L 244.909 419.26 L 244.909 417.571 L 250.249 417.571 L 250.448 421.293 C 251.137 419.989 252.063 418.979 253.228 418.261 C 254.393 417.546 255.783 417.188 257.398 417.188 C 259.727 417.188 261.5 417.875 262.717 419.25 C 263.935 420.626 264.545 422.778 264.545 425.706 L 264.545 436.411 L 267.781 436.66 L 267.781 438.329 L 258.925 438.329 L 258.925 436.66 L 262.162 436.411 L 262.162 425.724 C 262.162 423.32 261.705 421.625 260.793 420.642 C 259.879 419.656 258.575 419.164 256.88 419.164 C 255.107 419.164 253.705 419.643 252.672 420.603 C 251.64 421.562 250.925 422.816 250.528 424.363 L 250.528 436.411 L 253.765 436.66 L 253.765 438.329 L 244.909 438.329 Z" style="white-space: pre; stroke: rgb(186, 218, 85); stroke-width: 0px;"/>
  <path d="M 278.005 446.713 C 277.422 446.713 276.896 446.691 276.426 446.647 C 275.956 446.601 275.464 446.521 274.949 446.407 L 275.265 441.763 C 275.569 441.841 275.87 441.901 276.168 441.946 C 276.466 441.991 276.807 442.014 277.192 442.014 C 277.945 442.014 278.528 441.735 278.939 441.178 C 279.349 440.622 279.554 439.839 279.554 438.827 L 279.554 421.811 L 276.497 421.217 L 276.497 417.571 L 285.887 417.571 L 285.887 438.827 C 285.887 441.348 285.196 443.292 283.814 444.659 C 282.43 446.029 280.494 446.713 278.005 446.713 Z M 279.275 413.407 L 279.275 408.4 L 285.828 408.4 L 285.828 413.407 L 279.275 413.407 Z M 296.421 438.732 C 294.304 438.732 292.607 438.173 291.329 437.055 C 290.052 435.935 289.414 434.422 289.414 432.516 C 289.414 431.224 289.774 430.08 290.494 429.082 C 291.216 428.085 292.299 427.304 293.743 426.741 C 295.185 426.179 296.978 425.898 299.123 425.898 L 301.683 425.898 L 301.683 424.516 C 301.683 423.595 301.408 422.834 300.858 422.234 C 300.31 421.632 299.473 421.332 298.348 421.332 C 297.805 421.332 297.312 421.395 296.868 421.523 C 296.425 421.651 296.018 421.837 295.648 422.081 L 295.192 424.765 L 290.665 424.765 L 290.584 419.202 C 291.749 418.627 292.993 418.147 294.317 417.763 C 295.641 417.38 297.11 417.188 298.726 417.188 C 301.597 417.188 303.867 417.827 305.534 419.107 C 307.202 420.386 308.035 422.208 308.035 424.573 L 308.035 432.708 C 308.035 433.002 308.039 433.286 308.047 433.562 C 308.054 433.838 308.083 434.103 308.135 434.359 L 310.399 434.704 L 310.399 438.329 L 302.775 438.329 C 302.616 438.036 302.451 437.69 302.279 437.292 C 302.107 436.896 301.988 436.5 301.922 436.105 C 301.246 436.91 300.471 437.55 299.598 438.023 C 298.725 438.495 297.666 438.732 296.421 438.732 Z M 298.248 434.3 C 298.91 434.3 299.553 434.16 300.175 433.88 C 300.796 433.598 301.299 433.214 301.683 432.728 L 301.683 429.58 L 299.161 429.58 C 298.05 429.58 297.2 429.823 296.61 430.309 C 296.021 430.796 295.726 431.398 295.726 432.114 C 295.726 432.804 295.954 433.34 296.412 433.724 C 296.869 434.108 297.481 434.3 298.248 434.3 Z M 311.886 438.329 L 311.886 434.704 L 314.548 434.108 L 314.548 421.811 L 311.511 421.217 L 311.511 417.571 L 320.503 417.571 L 320.761 420.507 C 321.476 419.458 322.357 418.642 323.402 418.06 C 324.448 417.479 325.64 417.188 326.976 417.188 C 329.041 417.188 330.669 417.846 331.86 419.164 C 333.052 420.481 333.647 422.559 333.647 425.398 L 333.647 434.108 L 336.288 434.704 L 336.288 438.329 L 324.99 438.329 L 324.99 434.704 L 327.274 434.108 L 327.274 425.398 C 327.274 424.144 327.012 423.253 326.489 422.723 C 325.967 422.191 325.21 421.925 324.217 421.925 C 323.475 421.925 322.829 422.069 322.281 422.357 C 321.731 422.645 321.271 423.058 320.9 423.595 L 320.9 434.108 L 322.967 434.704 L 322.967 438.329 L 311.886 438.329 Z M 337.579 438.329 L 337.579 434.704 L 340.257 434.108 L 340.257 412.639 L 337.181 412.046 L 337.181 408.4 L 346.571 408.4 L 346.571 434.108 L 348.855 434.704 L 348.855 438.329 L 337.579 438.329 Z M 351.217 438.329 L 351.217 434.914 L 352.706 434.512 L 352.647 434.435 L 348.973 429.484 L 353.162 425.628 L 359.715 434.051 L 362.276 434.704 L 362.276 438.329 L 351.217 438.329 Z M 345.876 432.746 L 342.68 429.58 L 352.011 421.542 L 352.032 421.505 L 349.867 421.178 L 349.867 417.571 L 361.602 417.571 L 361.602 421.217 L 358.822 421.946 L 345.876 432.746 Z M 373.635 438.732 C 371.556 438.732 369.742 438.294 368.193 437.418 C 366.645 436.542 365.444 435.34 364.59 433.811 C 363.736 432.284 363.309 430.547 363.309 428.603 L 363.309 427.853 C 363.309 425.782 363.7 423.941 364.481 422.33 C 365.261 420.719 366.387 419.455 367.857 418.54 C 369.326 417.626 371.086 417.175 373.138 417.188 C 375.083 417.188 376.724 417.552 378.06 418.282 C 379.398 419.01 380.415 420.074 381.11 421.475 C 381.805 422.876 382.152 424.581 382.152 426.588 L 382.152 429.85 L 369.902 429.85 L 369.881 429.964 C 369.961 430.758 370.19 431.458 370.566 432.066 C 370.943 432.673 371.466 433.156 372.136 433.514 C 372.804 433.872 373.621 434.051 374.587 434.051 C 375.58 434.051 376.524 433.936 377.417 433.706 C 378.309 433.476 379.212 433.118 380.126 432.632 L 381.715 436.372 C 380.788 437.049 379.64 437.612 378.271 438.06 C 376.899 438.508 375.354 438.732 373.635 438.732 Z M 369.921 425.916 L 376.275 425.916 L 376.275 425.418 C 376.275 424.625 376.179 423.95 375.987 423.394 C 375.795 422.837 375.477 422.411 375.034 422.117 C 374.59 421.823 374.004 421.676 373.275 421.676 C 372.535 421.676 371.926 421.855 371.45 422.213 C 370.973 422.571 370.612 423.064 370.368 423.691 C 370.123 424.319 369.955 425.028 369.862 425.82 L 369.921 425.916 Z M 384.431 438.329 L 384.431 434.704 L 387.091 434.108 L 387.091 421.811 L 384.053 421.217 L 384.053 417.571 L 393.048 417.571 L 393.306 420.507 C 394.02 419.458 394.9 418.642 395.946 418.06 C 396.991 417.479 398.182 417.188 399.518 417.188 C 401.585 417.188 403.213 417.846 404.403 419.164 C 405.594 420.481 406.19 422.559 406.19 425.398 L 406.19 434.108 L 408.83 434.704 L 408.83 438.329 L 397.535 438.329 L 397.535 434.704 L 399.816 434.108 L 399.816 425.398 C 399.816 424.144 399.556 423.253 399.034 422.723 C 398.511 422.191 397.753 421.925 396.76 421.925 C 396.019 421.925 395.374 422.069 394.824 422.357 C 394.275 422.645 393.815 423.058 393.443 423.595 L 393.443 434.108 L 395.509 434.704 L 395.509 438.329 L 384.431 438.329 Z" style="white-space: pre;"/>
  <g transform="matrix(1, 0, 0, 1, 10.688004, 19.125013)">
    <path d="M 201.025 234.23 L 434.769 234.23 C 443.606 234.23 450.769 241.393 450.769 250.23 L 450.769 279.842 C 450.769 288.679 443.606 295.842 434.769 295.842 L 201.025 295.842 C 192.188 295.842 185.025 288.679 185.025 279.842 L 185.025 250.23 C 185.025 241.393 192.188 234.23 201.025 234.23 Z M 217.477 275.415 C 218.661 274.91 219.669 274.273 220.503 273.506 L 219.491 271.932 C 218.711 272.649 217.808 273.216 216.782 273.631 C 215.756 274.047 214.568 274.255 213.217 274.255 C 211.841 274.255 210.633 273.909 209.593 273.218 C 208.554 272.526 207.747 271.58 207.172 270.378 C 206.595 269.177 206.301 267.808 206.288 266.273 L 206.328 265.428 L 221.219 265.428 L 221.219 263.473 C 221.219 261.682 220.885 260.125 220.217 258.801 C 219.547 257.476 218.587 256.45 217.337 255.722 C 216.086 254.992 214.58 254.628 212.82 254.628 C 211.152 254.628 209.64 255.075 208.283 255.971 C 206.926 256.866 205.851 258.091 205.056 259.644 C 204.262 261.199 203.865 262.967 203.865 264.948 L 203.865 266.004 C 203.865 267.999 204.262 269.761 205.056 271.29 C 205.851 272.819 206.95 274.014 208.354 274.876 C 209.757 275.74 211.378 276.172 213.217 276.172 C 214.872 276.172 216.292 275.919 217.477 275.415 Z M 206.446 263.395 C 206.579 262.09 206.933 260.923 207.51 259.893 C 208.085 258.864 208.829 258.052 209.742 257.458 C 210.656 256.863 211.682 256.565 212.82 256.565 C 214.077 256.565 215.153 256.84 216.047 257.389 C 216.94 257.939 217.628 258.698 218.111 259.665 C 218.594 260.63 218.836 261.72 218.836 262.934 L 218.836 263.509 L 206.487 263.509 Z M 235.727 275.769 L 243.33 256.834 L 245.654 256.7 L 245.654 255.011 L 238.089 255.011 L 238.089 256.7 L 240.947 256.873 L 235.566 270.57 L 234.713 272.852 L 234.595 272.852 L 233.801 270.57 L 228.24 256.873 L 231.061 256.7 L 231.061 255.011 L 223.496 255.011 L 223.496 256.7 L 225.779 256.834 L 233.583 275.769 Z M 261.289 275.415 C 262.475 274.91 263.484 274.273 264.318 273.506 L 263.304 271.932 C 262.523 272.649 261.62 273.216 260.594 273.631 C 259.568 274.047 258.381 274.255 257.032 274.255 C 255.654 274.255 254.446 273.909 253.408 273.218 C 252.369 272.526 251.561 271.58 250.985 270.378 C 250.409 269.177 250.115 267.808 250.103 266.273 L 250.141 265.428 L 265.032 265.428 L 265.032 263.473 C 265.032 261.682 264.698 260.125 264.029 258.801 C 263.361 257.476 262.401 256.45 261.15 255.722 C 259.9 254.992 258.395 254.628 256.635 254.628 C 254.966 254.628 253.453 255.075 252.098 255.971 C 250.741 256.866 249.666 258.091 248.871 259.644 C 248.077 261.199 247.68 262.967 247.68 264.948 L 247.68 266.004 C 247.68 267.999 248.077 269.761 248.871 271.29 C 249.666 272.819 250.764 274.014 252.167 274.876 C 253.569 275.74 255.191 276.172 257.032 276.172 C 258.685 276.172 260.104 275.919 261.289 275.415 Z M 250.261 263.395 C 250.394 262.09 250.747 260.923 251.323 259.893 C 251.898 258.864 252.643 258.052 253.557 257.458 C 254.469 256.863 255.495 256.565 256.635 256.565 C 257.891 256.565 258.966 256.84 259.859 257.389 C 260.753 257.939 261.442 258.698 261.925 259.665 C 262.408 260.63 262.649 261.72 262.649 262.934 L 262.649 263.509 L 250.299 263.509 Z M 277.578 275.769 L 277.578 274.1 L 274.341 273.851 L 274.341 261.803 C 274.738 260.256 275.453 259.002 276.485 258.043 C 277.518 257.083 278.92 256.604 280.693 256.604 C 282.388 256.604 283.692 257.096 284.606 258.082 C 285.518 259.065 285.975 260.76 285.975 263.164 L 285.975 273.851 L 282.738 274.1 L 282.738 275.769 L 291.594 275.769 L 291.594 274.1 L 288.358 273.851 L 288.358 263.146 C 288.358 260.218 287.748 258.066 286.53 256.69 C 285.313 255.315 283.54 254.628 281.211 254.628 C 279.596 254.628 278.206 254.986 277.041 255.701 C 275.876 256.419 274.95 257.429 274.261 258.733 L 274.062 255.011 L 268.722 255.011 L 268.722 256.7 L 271.958 256.949 L 271.958 273.851 L 268.722 274.1 L 268.722 275.769 Z M 307.627 282.099 C 309.009 280.732 309.7 278.788 309.7 276.267 L 309.7 255.011 L 300.31 255.011 L 300.31 258.657 L 303.367 259.251 L 303.367 276.267 C 303.367 277.279 303.162 278.062 302.752 278.618 C 302.341 279.175 301.758 279.454 301.005 279.454 C 300.62 279.454 300.279 279.431 299.981 279.386 C 299.683 279.341 299.382 279.281 299.078 279.203 L 298.762 283.847 C 299.277 283.961 299.769 284.041 300.239 284.087 C 300.709 284.131 301.235 284.153 301.818 284.153 C 304.307 284.153 306.243 283.469 307.627 282.099 Z M 309.641 250.847 L 309.641 245.84 L 303.088 245.84 L 303.088 250.847 Z M 323.411 275.463 C 324.284 274.99 325.059 274.35 325.735 273.545 C 325.801 273.94 325.92 274.336 326.092 274.732 C 326.264 275.13 326.429 275.476 326.588 275.769 L 334.212 275.769 L 334.212 272.144 L 331.948 271.799 C 331.896 271.543 331.867 271.278 331.86 271.002 C 331.852 270.726 331.848 270.442 331.848 270.148 L 331.848 262.013 C 331.848 259.648 331.015 257.826 329.347 256.547 C 327.68 255.267 325.41 254.628 322.539 254.628 C 320.923 254.628 319.454 254.82 318.13 255.203 C 316.806 255.587 315.562 256.067 314.397 256.642 L 314.478 262.205 L 319.005 262.205 L 319.461 259.521 C 319.831 259.277 320.238 259.091 320.681 258.963 C 321.125 258.835 321.618 258.772 322.161 258.772 C 323.286 258.772 324.123 259.072 324.671 259.674 C 325.221 260.274 325.496 261.035 325.496 261.956 L 325.496 263.338 L 322.936 263.338 C 320.791 263.338 318.998 263.619 317.556 264.181 C 316.112 264.744 315.029 265.525 314.307 266.522 C 313.587 267.52 313.227 268.664 313.227 269.956 C 313.227 271.862 313.865 273.375 315.142 274.495 C 316.42 275.613 318.117 276.172 320.234 276.172 C 321.479 276.172 322.538 275.935 323.411 275.463 Z M 320.225 271.164 C 319.767 270.78 319.539 270.244 319.539 269.554 C 319.539 268.838 319.834 268.236 320.423 267.749 C 321.013 267.263 321.863 267.02 322.974 267.02 L 325.496 267.02 L 325.496 270.168 C 325.112 270.654 324.609 271.038 323.988 271.32 C 323.366 271.6 322.723 271.74 322.061 271.74 C 321.294 271.74 320.682 271.548 320.225 271.164 Z M 346.78 275.769 L 346.78 272.144 L 344.713 271.548 L 344.713 261.035 C 345.084 260.498 345.544 260.085 346.094 259.797 C 346.642 259.509 347.288 259.365 348.03 259.365 C 349.023 259.365 349.78 259.631 350.302 260.163 C 350.825 260.693 351.087 261.584 351.087 262.838 L 351.087 271.548 L 348.803 272.144 L 348.803 275.769 L 360.101 275.769 L 360.101 272.144 L 357.46 271.548 L 357.46 262.838 C 357.46 259.999 356.865 257.921 355.673 256.604 C 354.482 255.286 352.854 254.628 350.789 254.628 C 349.453 254.628 348.261 254.919 347.215 255.5 C 346.17 256.082 345.289 256.898 344.574 257.947 L 344.316 255.011 L 335.324 255.011 L 335.324 258.657 L 338.361 259.251 L 338.361 271.548 L 335.699 272.144 L 335.699 275.769 Z M 372.668 275.769 L 372.668 272.144 L 370.384 271.548 L 370.384 269.606 L 373.097 267.343 L 376.46 271.875 L 376.519 271.952 L 375.03 272.354 L 375.03 275.769 L 386.089 275.769 L 386.089 272.144 L 383.528 271.491 L 377.466 263.699 L 382.635 259.386 L 385.415 258.657 L 385.415 255.011 L 373.68 255.011 L 373.68 258.618 L 375.845 258.945 L 375.824 258.982 L 370.384 263.668 L 370.384 245.84 L 360.994 245.84 L 360.994 249.486 L 364.07 250.079 L 364.07 271.548 L 361.392 272.144 L 361.392 275.769 Z M 402.084 275.5 C 403.453 275.052 404.601 274.489 405.528 273.812 L 403.939 270.072 C 403.025 270.558 402.122 270.916 401.23 271.146 C 400.337 271.376 399.393 271.491 398.4 271.491 C 397.434 271.491 396.617 271.312 395.949 270.954 C 395.279 270.596 394.756 270.113 394.379 269.506 C 394.003 268.898 393.774 268.198 393.694 267.404 L 393.715 267.29 L 405.965 267.29 L 405.965 264.028 C 405.965 262.021 405.618 260.316 404.923 258.915 C 404.228 257.514 403.211 256.45 401.873 255.722 C 400.537 254.992 398.896 254.628 396.951 254.628 C 394.899 254.615 393.139 255.066 391.67 255.98 C 390.2 256.895 389.074 258.159 388.294 259.77 C 387.513 261.381 387.122 263.222 387.122 265.293 L 387.122 266.043 C 387.122 267.987 387.549 269.724 388.403 271.251 C 389.257 272.78 390.458 273.982 392.006 274.858 C 393.555 275.734 395.369 276.172 397.448 276.172 C 399.167 276.172 400.712 275.948 402.084 275.5 Z M 393.675 263.26 C 393.768 262.468 393.936 261.759 394.181 261.131 C 394.425 260.504 394.786 260.011 395.263 259.653 C 395.739 259.295 396.348 259.116 397.088 259.116 C 397.817 259.116 398.403 259.263 398.847 259.557 C 399.29 259.851 399.608 260.277 399.8 260.834 C 399.992 261.39 400.088 262.065 400.088 262.858 L 400.088 263.356 L 393.734 263.356 Z M 419.322 275.769 L 419.322 272.144 L 417.256 271.548 L 417.256 261.035 C 417.628 260.498 418.088 260.085 418.637 259.797 C 419.187 259.509 419.832 259.365 420.573 259.365 C 421.566 259.365 422.324 259.631 422.847 260.163 C 423.369 260.693 423.629 261.584 423.629 262.838 L 423.629 271.548 L 421.348 272.144 L 421.348 275.769 L 432.643 275.769 L 432.643 272.144 L 430.003 271.548 L 430.003 262.838 C 430.003 259.999 429.407 257.921 428.216 256.604 C 427.026 255.286 425.398 254.628 423.331 254.628 C 421.995 254.628 420.804 254.919 419.759 255.5 C 418.713 256.082 417.833 256.898 417.119 257.947 L 416.861 255.011 L 407.866 255.011 L 407.866 258.657 L 410.904 259.251 L 410.904 271.548 L 408.244 272.144 L 408.244 275.769 Z" style="stroke-width: 4px; paint-order: stroke; stroke: rgb(255, 255, 255); stroke-opacity: 0; fill: rgb(255, 255, 255);"/>
  </g>
  <g transform="matrix(1, 0, 0, 1, 6.023366, -60.525444)">
    <path d="M 201.025 234.23 L 434.769 234.23 C 443.606 234.23 450.769 241.393 450.769 250.23 L 450.769 279.842 C 450.769 288.679 443.606 295.842 434.769 295.842 L 201.025 295.842 C 192.188 295.842 185.025 288.679 185.025 279.842 L 185.025 250.23 C 185.025 241.393 192.188 234.23 201.025 234.23 Z M 217.477 275.415 C 218.661 274.91 219.669 274.273 220.503 273.506 L 219.491 271.932 C 218.711 272.649 217.808 273.216 216.782 273.631 C 215.756 274.047 214.568 274.255 213.217 274.255 C 211.841 274.255 210.633 273.909 209.593 273.218 C 208.554 272.526 207.747 271.58 207.172 270.378 C 206.595 269.177 206.301 267.808 206.288 266.273 L 206.328 265.428 L 221.219 265.428 L 221.219 263.473 C 221.219 261.682 220.885 260.125 220.217 258.801 C 219.547 257.476 218.587 256.45 217.337 255.722 C 216.086 254.992 214.58 254.628 212.82 254.628 C 211.152 254.628 209.64 255.075 208.283 255.971 C 206.926 256.866 205.851 258.091 205.056 259.644 C 204.262 261.199 203.865 262.967 203.865 264.948 L 203.865 266.004 C 203.865 267.999 204.262 269.761 205.056 271.29 C 205.851 272.819 206.95 274.014 208.354 274.876 C 209.757 275.74 211.378 276.172 213.217 276.172 C 214.872 276.172 216.292 275.919 217.477 275.415 Z M 206.446 263.395 C 206.579 262.09 206.933 260.923 207.51 259.893 C 208.085 258.864 208.829 258.052 209.742 257.458 C 210.656 256.863 211.682 256.565 212.82 256.565 C 214.077 256.565 215.153 256.84 216.047 257.389 C 216.94 257.939 217.628 258.698 218.111 259.665 C 218.594 260.63 218.836 261.72 218.836 262.934 L 218.836 263.509 L 206.487 263.509 Z M 235.727 275.769 L 243.33 256.834 L 245.654 256.7 L 245.654 255.011 L 238.089 255.011 L 238.089 256.7 L 240.947 256.873 L 235.566 270.57 L 234.713 272.852 L 234.595 272.852 L 233.801 270.57 L 228.24 256.873 L 231.061 256.7 L 231.061 255.011 L 223.496 255.011 L 223.496 256.7 L 225.779 256.834 L 233.583 275.769 Z M 261.289 275.415 C 262.475 274.91 263.484 274.273 264.318 273.506 L 263.304 271.932 C 262.523 272.649 261.62 273.216 260.594 273.631 C 259.568 274.047 258.381 274.255 257.032 274.255 C 255.654 274.255 254.446 273.909 253.408 273.218 C 252.369 272.526 251.561 271.58 250.985 270.378 C 250.409 269.177 250.115 267.808 250.103 266.273 L 250.141 265.428 L 265.032 265.428 L 265.032 263.473 C 265.032 261.682 264.698 260.125 264.029 258.801 C 263.361 257.476 262.401 256.45 261.15 255.722 C 259.9 254.992 258.395 254.628 256.635 254.628 C 254.966 254.628 253.453 255.075 252.098 255.971 C 250.741 256.866 249.666 258.091 248.871 259.644 C 248.077 261.199 247.68 262.967 247.68 264.948 L 247.68 266.004 C 247.68 267.999 248.077 269.761 248.871 271.29 C 249.666 272.819 250.764 274.014 252.167 274.876 C 253.569 275.74 255.191 276.172 257.032 276.172 C 258.685 276.172 260.104 275.919 261.289 275.415 Z M 250.261 263.395 C 250.394 262.09 250.747 260.923 251.323 259.893 C 251.898 258.864 252.643 258.052 253.557 257.458 C 254.469 256.863 255.495 256.565 256.635 256.565 C 257.891 256.565 258.966 256.84 259.859 257.389 C 260.753 257.939 261.442 258.698 261.925 259.665 C 262.408 260.63 262.649 261.72 262.649 262.934 L 262.649 263.509 L 250.299 263.509 Z M 277.578 275.769 L 277.578 274.1 L 274.341 273.851 L 274.341 261.803 C 274.738 260.256 275.453 259.002 276.485 258.043 C 277.518 257.083 278.92 256.604 280.693 256.604 C 282.388 256.604 283.692 257.096 284.606 258.082 C 285.518 259.065 285.975 260.76 285.975 263.164 L 285.975 273.851 L 282.738 274.1 L 282.738 275.769 L 291.594 275.769 L 291.594 274.1 L 288.358 273.851 L 288.358 263.146 C 288.358 260.218 287.748 258.066 286.53 256.69 C 285.313 255.315 283.54 254.628 281.211 254.628 C 279.596 254.628 278.206 254.986 277.041 255.701 C 275.876 256.419 274.95 257.429 274.261 258.733 L 274.062 255.011 L 268.722 255.011 L 268.722 256.7 L 271.958 256.949 L 271.958 273.851 L 268.722 274.1 L 268.722 275.769 Z M 307.627 282.099 C 309.009 280.732 309.7 278.788 309.7 276.267 L 309.7 255.011 L 300.31 255.011 L 300.31 258.657 L 303.367 259.251 L 303.367 276.267 C 303.367 277.279 303.162 278.062 302.752 278.618 C 302.341 279.175 301.758 279.454 301.005 279.454 C 300.62 279.454 300.279 279.431 299.981 279.386 C 299.683 279.341 299.382 279.281 299.078 279.203 L 298.762 283.847 C 299.277 283.961 299.769 284.041 300.239 284.087 C 300.709 284.131 301.235 284.153 301.818 284.153 C 304.307 284.153 306.243 283.469 307.627 282.099 Z M 309.641 250.847 L 309.641 245.84 L 303.088 245.84 L 303.088 250.847 Z M 323.411 275.463 C 324.284 274.99 325.059 274.35 325.735 273.545 C 325.801 273.94 325.92 274.336 326.092 274.732 C 326.264 275.13 326.429 275.476 326.588 275.769 L 334.212 275.769 L 334.212 272.144 L 331.948 271.799 C 331.896 271.543 331.867 271.278 331.86 271.002 C 331.852 270.726 331.848 270.442 331.848 270.148 L 331.848 262.013 C 331.848 259.648 331.015 257.826 329.347 256.547 C 327.68 255.267 325.41 254.628 322.539 254.628 C 320.923 254.628 319.454 254.82 318.13 255.203 C 316.806 255.587 315.562 256.067 314.397 256.642 L 314.478 262.205 L 319.005 262.205 L 319.461 259.521 C 319.831 259.277 320.238 259.091 320.681 258.963 C 321.125 258.835 321.618 258.772 322.161 258.772 C 323.286 258.772 324.123 259.072 324.671 259.674 C 325.221 260.274 325.496 261.035 325.496 261.956 L 325.496 263.338 L 322.936 263.338 C 320.791 263.338 318.998 263.619 317.556 264.181 C 316.112 264.744 315.029 265.525 314.307 266.522 C 313.587 267.52 313.227 268.664 313.227 269.956 C 313.227 271.862 313.865 273.375 315.142 274.495 C 316.42 275.613 318.117 276.172 320.234 276.172 C 321.479 276.172 322.538 275.935 323.411 275.463 Z M 320.225 271.164 C 319.767 270.78 319.539 270.244 319.539 269.554 C 319.539 268.838 319.834 268.236 320.423 267.749 C 321.013 267.263 321.863 267.02 322.974 267.02 L 325.496 267.02 L 325.496 270.168 C 325.112 270.654 324.609 271.038 323.988 271.32 C 323.366 271.6 322.723 271.74 322.061 271.74 C 321.294 271.74 320.682 271.548 320.225 271.164 Z M 346.78 275.769 L 346.78 272.144 L 344.713 271.548 L 344.713 261.035 C 345.084 260.498 345.544 260.085 346.094 259.797 C 346.642 259.509 347.288 259.365 348.03 259.365 C 349.023 259.365 349.78 259.631 350.302 260.163 C 350.825 260.693 351.087 261.584 351.087 262.838 L 351.087 271.548 L 348.803 272.144 L 348.803 275.769 L 360.101 275.769 L 360.101 272.144 L 357.46 271.548 L 357.46 262.838 C 357.46 259.999 356.865 257.921 355.673 256.604 C 354.482 255.286 352.854 254.628 350.789 254.628 C 349.453 254.628 348.261 254.919 347.215 255.5 C 346.17 256.082 345.289 256.898 344.574 257.947 L 344.316 255.011 L 335.324 255.011 L 335.324 258.657 L 338.361 259.251 L 338.361 271.548 L 335.699 272.144 L 335.699 275.769 Z M 372.668 275.769 L 372.668 272.144 L 370.384 271.548 L 370.384 269.606 L 373.097 267.343 L 376.46 271.875 L 376.519 271.952 L 375.03 272.354 L 375.03 275.769 L 386.089 275.769 L 386.089 272.144 L 383.528 271.491 L 377.466 263.699 L 382.635 259.386 L 385.415 258.657 L 385.415 255.011 L 373.68 255.011 L 373.68 258.618 L 375.845 258.945 L 375.824 258.982 L 370.384 263.668 L 370.384 245.84 L 360.994 245.84 L 360.994 249.486 L 364.07 250.079 L 364.07 271.548 L 361.392 272.144 L 361.392 275.769 Z M 402.084 275.5 C 403.453 275.052 404.601 274.489 405.528 273.812 L 403.939 270.072 C 403.025 270.558 402.122 270.916 401.23 271.146 C 400.337 271.376 399.393 271.491 398.4 271.491 C 397.434 271.491 396.617 271.312 395.949 270.954 C 395.279 270.596 394.756 270.113 394.379 269.506 C 394.003 268.898 393.774 268.198 393.694 267.404 L 393.715 267.29 L 405.965 267.29 L 405.965 264.028 C 405.965 262.021 405.618 260.316 404.923 258.915 C 404.228 257.514 403.211 256.45 401.873 255.722 C 400.537 254.992 398.896 254.628 396.951 254.628 C 394.899 254.615 393.139 255.066 391.67 255.98 C 390.2 256.895 389.074 258.159 388.294 259.77 C 387.513 261.381 387.122 263.222 387.122 265.293 L 387.122 266.043 C 387.122 267.987 387.549 269.724 388.403 271.251 C 389.257 272.78 390.458 273.982 392.006 274.858 C 393.555 275.734 395.369 276.172 397.448 276.172 C 399.167 276.172 400.712 275.948 402.084 275.5 Z M 393.675 263.26 C 393.768 262.468 393.936 261.759 394.181 261.131 C 394.425 260.504 394.786 260.011 395.263 259.653 C 395.739 259.295 396.348 259.116 397.088 259.116 C 397.817 259.116 398.403 259.263 398.847 259.557 C 399.29 259.851 399.608 260.277 399.8 260.834 C 399.992 261.39 400.088 262.065 400.088 262.858 L 400.088 263.356 L 393.734 263.356 Z M 419.322 275.769 L 419.322 272.144 L 417.256 271.548 L 417.256 261.035 C 417.628 260.498 418.088 260.085 418.637 259.797 C 419.187 259.509 419.832 259.365 420.573 259.365 C 421.566 259.365 422.324 259.631 422.847 260.163 C 423.369 260.693 423.629 261.584 423.629 262.838 L 423.629 271.548 L 421.348 272.144 L 421.348 275.769 L 432.643 275.769 L 432.643 272.144 L 430.003 271.548 L 430.003 262.838 C 430.003 259.999 429.407 257.921 428.216 256.604 C 427.026 255.286 425.398 254.628 423.331 254.628 C 421.995 254.628 420.804 254.919 419.759 255.5 C 418.713 256.082 417.833 256.898 417.119 257.947 L 416.861 255.011 L 407.866 255.011 L 407.866 258.657 L 410.904 259.251 L 410.904 271.548 L 408.244 272.144 L 408.244 275.769 Z" style="stroke-width: 4px; paint-order: stroke; stroke: rgb(255, 255, 255); stroke-opacity: 0; fill: rgb(253, 233, 23);"/>
  </g>
  <g transform="matrix(1, 0, 0, 1, 23.076004, -315.222504)">
    <rect style="stroke-width: 4px; fill: rgb(253, 233, 23); paint-order: stroke; stroke: rgb(255, 255, 255); stroke-opacity: 0;" x="176.873" y="321.637" width="265.744" height="61.612" rx="16" ry="16"/>
    <path d="M 205.065 363.579 C 203.226 363.579 201.604 363.147 200.2 362.283 C 198.798 361.421 197.699 360.226 196.905 358.697 C 196.11 357.168 195.713 355.406 195.713 353.411 L 195.713 352.355 C 195.713 350.374 196.11 348.606 196.905 347.051 C 197.699 345.498 198.775 344.273 200.132 343.378 C 201.489 342.482 203.001 342.035 204.668 342.035 C 206.429 342.035 207.934 342.399 209.186 343.129 C 210.436 343.857 211.395 344.883 212.065 346.208 C 212.733 347.532 213.068 349.089 213.068 350.88 L 213.068 352.835 L 198.177 352.835 L 198.136 353.68 C 198.149 355.216 198.444 356.584 199.021 357.785 C 199.596 358.987 200.403 359.933 201.441 360.625 C 202.481 361.316 203.689 361.662 205.065 361.662 C 206.416 361.662 207.604 361.454 208.63 361.038 C 209.656 360.623 210.559 360.056 211.339 359.339 L 212.351 360.913 C 211.518 361.68 210.509 362.317 209.325 362.822 C 208.14 363.327 206.72 363.579 205.065 363.579 Z M 198.335 350.916 L 210.685 350.916 L 210.685 350.341 C 210.685 349.127 210.443 348.037 209.959 347.072 C 209.477 346.105 208.789 345.346 207.895 344.797 C 207.001 344.247 205.926 343.972 204.668 343.972 C 203.53 343.972 202.504 344.27 201.59 344.865 C 200.678 345.459 199.934 346.271 199.359 347.3 C 198.782 348.33 198.427 349.497 198.295 350.802 L 198.335 350.916 Z M 225.431 363.177 L 217.63 344.241 L 215.347 344.107 L 215.347 342.418 L 222.911 342.418 L 222.911 344.107 L 220.091 344.28 L 225.651 357.977 L 226.446 360.259 L 226.564 360.259 L 227.417 357.977 L 232.798 344.28 L 229.94 344.107 L 229.94 342.418 L 237.505 342.418 L 237.505 344.107 L 235.181 344.241 L 227.576 363.177 L 225.431 363.177 Z M 248.875 363.579 C 247.035 363.579 245.413 363.147 244.01 362.283 C 242.608 361.421 241.509 360.226 240.715 358.697 C 239.921 357.168 239.523 355.406 239.523 353.411 L 239.523 352.355 C 239.523 350.374 239.921 348.606 240.715 347.051 C 241.509 345.498 242.585 344.273 243.942 343.378 C 245.297 342.482 246.809 342.035 248.478 342.035 C 250.239 342.035 251.744 342.399 252.994 343.129 C 254.245 343.857 255.205 344.883 255.873 346.208 C 256.541 347.532 256.875 349.089 256.875 350.88 L 256.875 352.835 L 241.984 352.835 L 241.944 353.68 C 241.958 355.216 242.253 356.584 242.828 357.785 C 243.405 358.987 244.213 359.933 245.251 360.625 C 246.29 361.316 247.498 361.662 248.875 361.662 C 250.225 361.662 251.412 361.454 252.438 361.038 C 253.464 360.623 254.367 360.056 255.147 359.339 L 256.161 360.913 C 255.328 361.68 254.318 362.317 253.133 362.822 C 251.948 363.327 250.529 363.579 248.875 363.579 Z M 242.143 350.916 L 254.492 350.916 L 254.492 350.341 C 254.492 349.127 254.251 348.037 253.769 347.072 C 253.285 346.105 252.596 345.346 251.703 344.797 C 250.809 344.247 249.734 343.972 248.478 343.972 C 247.339 343.972 246.313 344.27 245.4 344.865 C 244.486 345.459 243.742 346.271 243.166 347.3 C 242.591 348.33 242.237 349.497 242.105 350.802 L 242.143 350.916 Z M 260.568 363.177 L 260.568 361.507 L 263.804 361.258 L 263.804 344.356 L 260.568 344.107 L 260.568 342.418 L 265.908 342.418 L 266.107 346.14 C 266.796 344.836 267.722 343.826 268.887 343.108 C 270.052 342.393 271.442 342.035 273.057 342.035 C 275.386 342.035 277.16 342.722 278.379 344.097 C 279.595 345.473 280.204 347.625 280.204 350.553 L 280.204 361.258 L 283.44 361.507 L 283.44 363.177 L 274.584 363.177 L 274.584 361.507 L 277.821 361.258 L 277.821 350.571 C 277.821 348.167 277.364 346.472 276.452 345.489 C 275.538 344.503 274.234 344.011 272.539 344.011 C 270.766 344.011 269.364 344.49 268.331 345.45 C 267.299 346.409 266.584 347.663 266.187 349.21 L 266.187 361.258 L 269.424 361.507 L 269.424 363.177 L 260.568 363.177 Z" style="white-space: pre; stroke: rgb(186, 218, 85); stroke-width: 0px;"/>
    <path d="M 293.664 371.56 C 293.081 371.56 292.555 371.538 292.085 371.494 C 291.615 371.448 291.122 371.368 290.605 371.254 L 290.924 366.61 C 291.228 366.688 291.53 366.749 291.827 366.793 C 292.125 366.838 292.466 366.861 292.849 366.861 C 293.604 366.861 294.186 366.583 294.596 366.025 C 295.007 365.469 295.213 364.686 295.213 363.675 L 295.213 346.658 L 292.154 346.064 L 292.154 342.418 L 301.546 342.418 L 301.546 363.675 C 301.546 366.195 300.854 368.139 299.47 369.507 C 298.088 370.876 296.153 371.56 293.664 371.56 Z M 294.934 338.254 L 294.934 333.247 L 301.487 333.247 L 301.487 338.254 L 294.934 338.254 Z M 312.085 363.579 C 309.967 363.579 308.268 363.02 306.99 361.902 C 305.714 360.783 305.075 359.269 305.075 357.363 C 305.075 356.071 305.436 354.927 306.158 353.929 C 306.878 352.932 307.96 352.151 309.404 351.588 C 310.846 351.026 312.639 350.745 314.784 350.745 L 317.345 350.745 L 317.345 349.363 C 317.345 348.442 317.07 347.681 316.522 347.081 C 315.972 346.479 315.134 346.179 314.009 346.179 C 313.467 346.179 312.974 346.243 312.532 346.37 C 312.087 346.498 311.68 346.684 311.309 346.928 L 310.853 349.612 L 306.326 349.612 L 306.246 344.05 C 307.412 343.474 308.656 342.994 309.978 342.61 C 311.302 342.227 312.772 342.035 314.387 342.035 C 317.259 342.035 319.528 342.674 321.196 343.954 C 322.865 345.233 323.699 347.055 323.699 349.42 L 323.699 357.555 C 323.699 357.849 323.702 358.133 323.709 358.409 C 323.715 358.685 323.745 358.95 323.798 359.206 L 326.061 359.551 L 326.061 363.177 L 318.437 363.177 C 318.278 362.883 318.112 362.537 317.94 362.139 C 317.769 361.743 317.65 361.348 317.583 360.952 C 316.909 361.757 316.134 362.397 315.26 362.87 C 314.386 363.343 313.328 363.579 312.085 363.579 Z M 313.91 359.147 C 314.572 359.147 315.214 359.007 315.836 358.727 C 316.459 358.445 316.962 358.061 317.345 357.575 L 317.345 354.427 L 314.825 354.427 C 313.712 354.427 312.861 354.67 312.271 355.156 C 311.684 355.643 311.39 356.245 311.39 356.961 C 311.39 357.651 311.617 358.187 312.073 358.571 C 312.53 358.955 313.142 359.147 313.91 359.147 Z M 327.548 363.177 L 327.548 359.551 L 330.207 358.955 L 330.207 346.658 L 327.17 346.064 L 327.17 342.418 L 336.165 342.418 L 336.422 345.354 C 337.138 344.305 338.018 343.489 339.063 342.907 C 340.109 342.326 341.301 342.035 342.637 342.035 C 344.702 342.035 346.33 342.693 347.521 344.011 C 348.713 345.328 349.309 347.406 349.309 350.245 L 349.309 358.955 L 351.949 359.551 L 351.949 363.177 L 340.652 363.177 L 340.652 359.551 L 342.935 358.955 L 342.935 350.245 C 342.935 348.991 342.674 348.1 342.15 347.57 C 341.627 347.038 340.869 346.772 339.876 346.772 C 339.135 346.772 338.491 346.916 337.942 347.204 C 337.392 347.492 336.932 347.905 336.562 348.442 L 336.562 358.955 L 338.626 359.551 L 338.626 363.177 L 327.548 363.177 Z M 353.238 363.177 L 353.238 359.551 L 355.918 358.955 L 355.918 337.487 L 352.841 336.893 L 352.841 333.247 L 362.23 333.247 L 362.23 358.955 L 364.514 359.551 L 364.514 363.177 L 353.238 363.177 Z M 366.876 363.177 L 366.876 359.761 L 368.365 359.359 L 368.306 359.282 L 364.632 354.331 L 368.824 350.475 L 375.374 358.898 L 377.935 359.551 L 377.935 363.177 L 366.876 363.177 Z M 361.535 357.594 L 358.339 354.427 L 367.67 346.389 L 367.691 346.352 L 365.526 346.025 L 365.526 342.418 L 377.261 342.418 L 377.261 346.064 L 374.481 346.793 L 361.535 357.594 Z M 389.294 363.579 C 387.217 363.579 385.403 363.141 383.854 362.265 C 382.305 361.389 381.104 360.187 380.251 358.658 C 379.397 357.131 378.97 355.394 378.97 353.45 L 378.97 352.7 C 378.97 350.629 379.36 348.788 380.14 347.177 C 380.922 345.566 382.047 344.302 383.516 343.387 C 384.985 342.473 386.745 342.023 388.797 342.035 C 390.744 342.035 392.385 342.399 393.722 343.129 C 395.058 343.857 396.074 344.921 396.769 346.322 C 397.464 347.724 397.811 349.428 397.811 351.435 L 397.811 354.697 L 385.561 354.697 L 385.542 354.811 C 385.621 355.605 385.849 356.305 386.228 356.913 C 386.604 357.52 387.127 358.003 387.795 358.361 C 388.463 358.719 389.28 358.898 390.246 358.898 C 391.239 358.898 392.183 358.783 393.076 358.553 C 393.97 358.323 394.873 357.965 395.785 357.479 L 397.374 361.219 C 396.447 361.897 395.299 362.459 393.93 362.907 C 392.56 363.355 391.015 363.579 389.294 363.579 Z M 385.582 350.763 L 391.934 350.763 L 391.934 350.265 C 391.934 349.472 391.838 348.797 391.646 348.241 C 391.455 347.684 391.138 347.258 390.693 346.964 C 390.25 346.67 389.665 346.523 388.937 346.523 C 388.196 346.523 387.587 346.702 387.109 347.06 C 386.633 347.418 386.273 347.911 386.029 348.538 C 385.783 349.166 385.614 349.875 385.521 350.667 L 385.582 350.763 Z M 400.093 363.177 L 400.093 359.551 L 402.752 358.955 L 402.752 346.658 L 399.714 346.064 L 399.714 342.418 L 408.71 342.418 L 408.967 345.354 C 409.683 344.305 410.563 343.489 411.608 342.907 C 412.654 342.326 413.846 342.035 415.182 342.035 C 417.247 342.035 418.875 342.693 420.066 344.011 C 421.258 345.328 421.853 347.406 421.853 350.245 L 421.853 358.955 L 424.494 359.551 L 424.494 363.177 L 413.196 363.177 L 413.196 359.551 L 415.48 358.955 L 415.48 350.245 C 415.48 348.991 415.218 348.1 414.695 347.57 C 414.172 347.038 413.414 346.772 412.421 346.772 C 411.68 346.772 411.036 346.916 410.487 347.204 C 409.937 347.492 409.477 347.905 409.107 348.442 L 409.107 358.955 L 411.17 359.551 L 411.17 363.177 L 400.093 363.177 Z" style="white-space: pre;"/>
  </g>
</svg>